<svg width="310" height="80" viewBox="0 0 310 80" fill="none" xmlns="http://www.w3.org/2000/svg">
<g filter="url(#filter0_d_385_64917)">
<path d="M11 16.8887C11 11.3658 15.4772 6.88867 21 6.88867H289C294.523 6.88867 299 11.3658 299 16.8887V54.8887C299 60.4115 294.523 64.8887 289 64.8887H21C15.4771 64.8887 11 60.4115 11 54.8887V16.8887Z" fill="white"/>
<path d="M11.5 16.8887C11.5 11.642 15.7533 7.38867 21 7.38867H289C294.247 7.38867 298.5 11.642 298.5 16.8887V54.8887C298.5 60.1354 294.247 64.3887 289 64.3887H21C15.7533 64.3887 11.5 60.1354 11.5 54.8887V16.8887Z" stroke="#BFC6DD"/>
<path d="M102.179 36.1874C102.179 35.0817 102.09 34.2748 101.895 33.438H89.269V38.4287H96.6805C96.5311 39.669 95.7242 41.5368 93.9311 42.7919L93.9059 42.959L97.8982 46.0517L98.1748 46.0793C100.715 43.7333 102.179 40.2816 102.179 36.1874Z" fill="#4285F4"/>
<path d="M89.2692 49.3368C92.9001 49.3368 95.9484 48.1413 98.1749 46.0794L93.9312 42.7919C92.7956 43.5839 91.2714 44.1367 89.2692 44.1367C85.7129 44.1367 82.6945 41.7909 81.6186 38.5483L81.4608 38.5617L77.3097 41.7744L77.2554 41.9253C79.4668 46.3183 84.0094 49.3368 89.2692 49.3368Z" fill="#34A853"/>
<path d="M81.6184 38.5486C81.3345 37.7119 81.1702 36.8152 81.1702 35.8889C81.1702 34.9624 81.3345 34.0659 81.6035 33.2291L81.596 33.0509L77.3928 29.7866L77.2552 29.852C76.3438 31.675 75.8208 33.7222 75.8208 35.8889C75.8208 38.0555 76.3438 40.1026 77.2552 41.9256L81.6184 38.5486Z" fill="#FBBC05"/>
<path d="M89.2692 27.6404C91.7944 27.6404 93.4978 28.7312 94.4691 29.6427L98.2645 25.937C95.9335 23.7703 92.9001 22.4404 89.2692 22.4404C84.0094 22.4404 79.4668 25.4588 77.2554 29.8518L81.6036 33.2289C82.6945 29.9864 85.7129 27.6404 89.2692 27.6404Z" fill="#EB4335"/>
<path d="M107.633 39.0596L109.127 38.5469C109.411 39.0449 109.811 39.4502 110.329 39.7627C110.846 40.0654 111.427 40.2168 112.072 40.2168C112.746 40.2168 113.292 40.0508 113.712 39.7188C114.142 39.3867 114.357 38.9473 114.357 38.4004C114.357 38.1074 114.293 37.8486 114.167 37.624C114.04 37.3896 113.839 37.1895 113.566 37.0234C113.302 36.8477 113.043 36.7061 112.79 36.5986C112.545 36.4912 112.223 36.3691 111.823 36.2324C110.67 35.8516 109.879 35.5293 109.45 35.2656C108.512 34.6895 108.043 33.8789 108.043 32.834C108.043 31.9062 108.405 31.1592 109.127 30.5928C109.85 30.0264 110.797 29.7432 111.969 29.7432C112.917 29.7432 113.732 29.9629 114.416 30.4023C115.099 30.8418 115.592 31.3984 115.895 32.0723L114.489 32.5557C113.883 31.6377 113.039 31.1787 111.955 31.1787C111.281 31.1787 110.749 31.3301 110.358 31.6328C109.967 31.9258 109.772 32.3213 109.772 32.8193C109.772 33.2002 109.928 33.5371 110.241 33.8301C110.553 34.123 110.846 34.3232 111.12 34.4307C111.393 34.5381 111.872 34.7041 112.555 34.9287C112.702 34.9775 112.814 35.0166 112.892 35.0459C113.351 35.2021 113.747 35.3584 114.079 35.5146C114.411 35.6709 114.743 35.876 115.075 36.1299C115.407 36.3838 115.661 36.6963 115.836 37.0674C116.012 37.4385 116.1 37.8584 116.1 38.3271C116.1 39.3721 115.724 40.1875 114.972 40.7734C114.22 41.3594 113.244 41.6523 112.042 41.6523C110.998 41.6523 110.094 41.418 109.333 40.9492C108.571 40.4805 108.004 39.8506 107.633 39.0596ZM117.32 31.6914V29.8457H119.122V31.6914H117.32ZM117.437 41.3887V33.127H119.034V41.3887H117.437ZM122.085 37.0967C122.085 37.9854 122.261 38.6836 122.612 39.1914C122.974 39.6992 123.452 39.9531 124.048 39.9531C124.643 39.9531 125.117 39.709 125.469 39.2207C125.82 38.7227 125.996 38.0146 125.996 37.0967C125.996 36.1982 125.815 35.5 125.454 35.002C125.102 34.4941 124.643 34.2402 124.077 34.2402C123.472 34.2402 122.988 34.5039 122.627 35.0312C122.266 35.5488 122.085 36.2373 122.085 37.0967ZM120.444 37.1113C120.444 35.8223 120.762 34.792 121.396 34.0205C122.041 33.249 122.861 32.8633 123.857 32.8633C124.404 32.8633 124.858 33.0049 125.22 33.2881C125.591 33.5615 125.854 33.8691 126.011 34.2109V33.127H127.607V40.3047C127.607 41.8672 127.309 43.0195 126.714 43.7617C126.128 44.5137 125.21 44.8896 123.96 44.8896C122.583 44.8896 121.523 44.3721 120.781 43.3369L121.865 42.5898C122.461 43.2637 123.174 43.6006 124.004 43.6006C124.59 43.6006 125.063 43.3711 125.425 42.9121C125.786 42.4531 125.976 41.8525 125.996 41.1104C125.996 40.9932 125.996 40.8174 125.996 40.583C126.006 40.3486 126.011 40.1875 126.011 40.0996C125.815 40.4609 125.532 40.7588 125.161 40.9932C124.79 41.2178 124.375 41.3301 123.916 41.3301C122.871 41.3301 122.031 40.9443 121.396 40.1729C120.762 39.3916 120.444 38.3711 120.444 37.1113ZM129.281 41.3887V33.127H130.849V34.2842H130.863C130.99 33.9521 131.264 33.6348 131.684 33.332C132.113 33.0195 132.641 32.8633 133.266 32.8633C134.067 32.8633 134.711 33.1123 135.199 33.6104C135.688 34.1084 135.932 34.9287 135.932 36.0713V41.3887H134.32V36.291C134.32 34.9238 133.847 34.2402 132.9 34.2402C132.343 34.2402 131.869 34.4697 131.479 34.9287C131.098 35.3779 130.907 35.9248 130.907 36.5693V41.3887H129.281ZM140.833 31.6914V29.8457H142.634V31.6914H140.833ZM140.95 41.3887V33.127H142.546V41.3887H140.95ZM144.425 41.3887V33.127H145.993V34.2842H146.008C146.134 33.9521 146.408 33.6348 146.828 33.332C147.258 33.0195 147.785 32.8633 148.41 32.8633C149.211 32.8633 149.855 33.1123 150.343 33.6104C150.832 34.1084 151.076 34.9287 151.076 36.0713V41.3887H149.465V36.291C149.465 34.9238 148.991 34.2402 148.044 34.2402C147.487 34.2402 147.013 34.4697 146.623 34.9287C146.242 35.3779 146.051 35.9248 146.051 36.5693V41.3887H144.425ZM154.937 33.127H156.68L157.647 37.5947C157.783 38.2588 157.93 39.0059 158.086 39.8359H158.145C158.262 39.2402 158.413 38.4932 158.599 37.5947L159.609 33.127H161.353L162.363 37.6387C162.393 37.7754 162.461 38.1025 162.568 38.6201C162.676 39.1279 162.759 39.5332 162.817 39.8359H162.876C163.003 39.2207 163.15 38.4736 163.316 37.5947L164.282 33.127H166.025L163.784 41.3887H161.924L160.942 37.0674C160.689 35.8174 160.542 35.085 160.503 34.8701H160.444C160.21 36.1006 160.068 36.833 160.02 37.0674L159.038 41.3887H157.178L154.937 33.127ZM166.85 31.6914V29.8457H168.652V31.6914H166.85ZM166.967 41.3887V33.127H168.564V41.3887H166.967ZM169.652 34.5039V33.127H170.985V30.6221H172.596V33.127H174.574V34.5039H172.596V38.8105C172.596 39.2402 172.679 39.5479 172.845 39.7334C173.021 39.9189 173.285 40.0117 173.636 40.0117H174.574V41.3887H173.431C171.8 41.3887 170.985 40.5684 170.985 38.9277V34.5039H169.652ZM175.72 41.3887V29.6113H177.317V34.123H177.346C177.551 33.7617 177.859 33.4639 178.269 33.2295C178.679 32.9854 179.129 32.8633 179.617 32.8633C180.427 32.8633 181.082 33.1172 181.58 33.625C182.088 34.123 182.342 34.9385 182.342 36.0713V41.3887H180.745V36.291C180.745 34.9238 180.271 34.2402 179.324 34.2402C178.767 34.2402 178.294 34.4746 177.903 34.9434C177.512 35.4121 177.317 35.9688 177.317 36.6133V41.3887H175.72ZM186.73 35.7051C186.73 33.957 187.189 32.5264 188.107 31.4131C189.025 30.2998 190.26 29.7432 191.813 29.7432C192.369 29.7432 192.887 29.8359 193.365 30.0215C193.854 30.1973 194.254 30.4316 194.567 30.7246C194.889 31.0078 195.148 31.2861 195.343 31.5596C195.538 31.8232 195.699 32.0918 195.826 32.3652L194.391 32.834C194.078 32.3359 193.727 31.9355 193.336 31.6328C192.945 31.3301 192.438 31.1787 191.813 31.1787C190.758 31.1787 189.933 31.5938 189.337 32.4238C188.751 33.2539 188.458 34.3477 188.458 35.7051C188.458 37.1016 188.761 38.2051 189.366 39.0156C189.972 39.8164 190.763 40.2168 191.739 40.2168C192.599 40.2168 193.268 39.958 193.746 39.4404C194.234 38.9131 194.498 38.2686 194.537 37.5068C194.547 37.3408 194.552 37.0137 194.552 36.5254H191.622V35.1045H196.178V41.3887H195.006L194.874 40.0557C194.249 41.1201 193.19 41.6523 191.695 41.6523C190.25 41.6523 189.059 41.1201 188.121 40.0557C187.193 38.9814 186.73 37.5312 186.73 35.7051ZM198.819 37.2578C198.819 38.2441 199.029 38.9961 199.449 39.5137C199.868 40.0312 200.371 40.29 200.957 40.29C201.533 40.29 202.032 40.0312 202.451 39.5137C202.881 38.9961 203.096 38.2441 203.096 37.2578C203.096 36.2617 202.881 35.5098 202.451 35.002C202.032 34.4941 201.533 34.2402 200.957 34.2402C200.381 34.2402 199.878 34.4941 199.449 35.002C199.029 35.5098 198.819 36.2617 198.819 37.2578ZM197.178 37.2578C197.178 36.457 197.305 35.7344 197.559 35.0898C197.823 34.4453 198.247 33.9131 198.833 33.4932C199.419 33.0732 200.127 32.8633 200.957 32.8633C202.178 32.8633 203.111 33.2881 203.755 34.1377C204.409 34.9775 204.737 36.0176 204.737 37.2578C204.737 37.7656 204.673 38.2637 204.546 38.752C204.419 39.2305 204.214 39.6943 203.931 40.1436C203.658 40.5928 203.262 40.959 202.744 41.2422C202.237 41.5156 201.641 41.6523 200.957 41.6523C200.274 41.6523 199.678 41.5205 199.17 41.2568C198.662 40.9834 198.267 40.627 197.984 40.1875C197.71 39.7383 197.505 39.2695 197.368 38.7812C197.242 38.293 197.178 37.7852 197.178 37.2578ZM207.055 37.2578C207.055 38.2441 207.265 38.9961 207.685 39.5137C208.105 40.0312 208.608 40.29 209.194 40.29C209.77 40.29 210.268 40.0312 210.688 39.5137C211.118 38.9961 211.333 38.2441 211.333 37.2578C211.333 36.2617 211.118 35.5098 210.688 35.002C210.268 34.4941 209.77 34.2402 209.194 34.2402C208.618 34.2402 208.115 34.4941 207.685 35.002C207.265 35.5098 207.055 36.2617 207.055 37.2578ZM205.415 37.2578C205.415 36.457 205.542 35.7344 205.795 35.0898C206.059 34.4453 206.484 33.9131 207.07 33.4932C207.656 33.0732 208.364 32.8633 209.194 32.8633C210.415 32.8633 211.347 33.2881 211.992 34.1377C212.646 34.9775 212.973 36.0176 212.973 37.2578C212.973 37.7656 212.91 38.2637 212.783 38.752C212.656 39.2305 212.451 39.6943 212.167 40.1436C211.894 40.5928 211.499 40.959 210.981 41.2422C210.473 41.5156 209.877 41.6523 209.194 41.6523C208.51 41.6523 207.915 41.5205 207.407 41.2568C206.899 40.9834 206.503 40.627 206.22 40.1875C205.947 39.7383 205.742 39.2695 205.605 38.7812C205.478 38.293 205.415 37.7852 205.415 37.2578ZM215.321 37.0967C215.321 37.9854 215.497 38.6836 215.848 39.1914C216.21 39.6992 216.688 39.9531 217.284 39.9531C217.88 39.9531 218.353 39.709 218.705 39.2207C219.056 38.7227 219.232 38.0146 219.232 37.0967C219.232 36.1982 219.051 35.5 218.69 35.002C218.339 34.4941 217.88 34.2402 217.313 34.2402C216.708 34.2402 216.224 34.5039 215.863 35.0312C215.502 35.5488 215.321 36.2373 215.321 37.0967ZM213.68 37.1113C213.68 35.8223 213.998 34.792 214.633 34.0205C215.277 33.249 216.097 32.8633 217.093 32.8633C217.64 32.8633 218.094 33.0049 218.456 33.2881C218.827 33.5615 219.091 33.8691 219.247 34.2109V33.127H220.843V40.3047C220.843 41.8672 220.546 43.0195 219.95 43.7617C219.364 44.5137 218.446 44.8896 217.196 44.8896C215.819 44.8896 214.759 44.3721 214.017 43.3369L215.101 42.5898C215.697 43.2637 216.41 43.6006 217.24 43.6006C217.826 43.6006 218.3 43.3711 218.661 42.9121C219.022 42.4531 219.213 41.8525 219.232 41.1104C219.232 40.9932 219.232 40.8174 219.232 40.583C219.242 40.3486 219.247 40.1875 219.247 40.0996C219.051 40.4609 218.768 40.7588 218.397 40.9932C218.026 41.2178 217.611 41.3301 217.152 41.3301C216.107 41.3301 215.267 40.9443 214.633 40.1729C213.998 39.3916 213.68 38.3711 213.68 37.1113ZM222.679 41.3887V29.6113H224.29V41.3887H222.679ZM225.627 37.2139C225.627 35.9053 225.983 34.8555 226.696 34.0645C227.419 33.2637 228.332 32.8633 229.436 32.8633C230.539 32.8633 231.433 33.2588 232.116 34.0498C232.81 34.8408 233.156 35.8613 233.156 37.1113C233.156 37.1309 233.142 37.3604 233.112 37.7998H227.253C227.253 38.4932 227.453 39.0889 227.854 39.5869C228.254 40.085 228.811 40.334 229.524 40.334C230.002 40.334 230.427 40.2168 230.798 39.9824C231.169 39.748 231.452 39.4453 231.648 39.0742L232.995 39.5283C232.732 40.1436 232.302 40.6514 231.706 41.0518C231.12 41.4521 230.388 41.6523 229.509 41.6523C228.357 41.6523 227.419 41.252 226.696 40.4512C225.983 39.6406 225.627 38.5615 225.627 37.2139ZM227.282 36.6426H231.516C231.516 35.9492 231.33 35.3633 230.959 34.8848C230.588 34.4062 230.08 34.167 229.436 34.167C228.781 34.167 228.264 34.4111 227.883 34.8994C227.502 35.3877 227.302 35.9688 227.282 36.6426Z" fill="black"/>
</g>
<defs>
<filter id="filter0_d_385_64917" x="0.7" y="0.588672" width="308.6" height="78.6" filterUnits="userSpaceOnUse" color-interpolation-filters="sRGB">
<feFlood flood-opacity="0" result="BackgroundImageFix"/>
<feColorMatrix in="SourceAlpha" type="matrix" values="0 0 0 0 0 0 0 0 0 0 0 0 0 0 0 0 0 0 127 0" result="hardAlpha"/>
<feOffset dy="4"/>
<feGaussianBlur stdDeviation="5.15"/>
<feComposite in2="hardAlpha" operator="out"/>
<feColorMatrix type="matrix" values="0 0 0 0 0 0 0 0 0 0 0 0 0 0 0 0 0 0 0.1 0"/>
<feBlend mode="normal" in2="BackgroundImageFix" result="effect1_dropShadow_385_64917"/>
<feBlend mode="normal" in="SourceGraphic" in2="effect1_dropShadow_385_64917" result="shape"/>
</filter>
</defs>
</svg>
