<svg width="142" height="26" viewBox="0 0 142 26" fill="none" xmlns="http://www.w3.org/2000/svg">
<path d="M6.3441 0.0751953C5.66013 0.0751953 5.10567 0.629659 5.10567 1.31362V3.83238C5.10567 4.51634 5.66013 5.0708 6.3441 5.0708C7.02806 5.0708 7.58253 4.51634 7.58253 3.83238V1.31362C7.58253 0.629658 7.02806 0.0751953 6.3441 0.0751953Z" fill="#1D4ED8"/>
<path d="M18.586 0.0751953C17.9021 0.0751953 17.3476 0.629658 17.3476 1.31362V3.83238C17.3476 4.51634 17.9021 5.0708 18.586 5.0708C19.27 5.0708 19.8245 4.51634 19.8245 3.83238V1.31362C19.8245 0.629658 19.27 0.0751953 18.586 0.0751953Z" fill="#1D4ED8"/>
<path d="M1.36556 5.05379C0.681599 5.05379 0.127136 5.60825 0.127136 6.29222C0.127136 6.97618 0.6816 7.53064 1.36556 7.53064H3.88432C4.56828 7.53064 5.12275 6.97618 5.12275 6.29222C5.12275 5.60825 4.56828 5.05379 3.88432 5.05379H1.36556Z" fill="#1D4ED8"/>
<path d="M8.76491 5.05379C8.08094 5.05379 7.52648 5.60825 7.52648 6.29222C7.52648 6.97618 8.08094 7.53064 8.76491 7.53064H16.1654C16.8494 7.53064 17.4039 6.97618 17.4039 6.29222C17.4039 5.60825 16.8494 5.05379 16.1654 5.05379H8.76491Z" fill="#1D4ED8"/>
<path d="M21.0459 5.05379C20.362 5.05379 19.8075 5.60825 19.8075 6.29222C19.8075 6.97618 20.362 7.53064 21.0459 7.53064H23.5647C24.2487 7.53064 24.8031 6.97618 24.8031 6.29222C24.8031 5.60825 24.2487 5.05379 23.5647 5.05379H21.0459Z" fill="#1D4ED8"/>
<path d="M6.3441 7.47448C5.66013 7.47448 5.10567 8.02895 5.10567 8.71291L5.10567 16.1134C5.10567 16.7974 5.66014 17.3519 6.3441 17.3519C7.02806 17.3519 7.58253 16.7974 7.58253 16.1134L7.58253 8.71291C7.58253 8.02894 7.02806 7.47448 6.3441 7.47448Z" fill="#1D4ED8"/>
<path d="M18.586 7.47448C17.9021 7.47448 17.3476 8.02894 17.3476 8.71291V16.1134C17.3476 16.7974 17.9021 17.3519 18.586 17.3519C19.27 17.3519 19.8245 16.7974 19.8245 16.1134V8.71291C19.8245 8.02894 19.27 7.47448 18.586 7.47448Z" fill="#1D4ED8"/>
<path d="M1.36556 17.2957C0.681599 17.2957 0.127136 17.8502 0.127136 18.5341C0.127136 19.2181 0.6816 19.7726 1.36556 19.7726H3.88432C4.56828 19.7726 5.12275 19.2181 5.12275 18.5341C5.12275 17.8502 4.56828 17.2957 3.88432 17.2957H1.36556Z" fill="#1D4ED8"/>
<path d="M8.76491 17.2957C8.08094 17.2957 7.52648 17.8502 7.52648 18.5341C7.52648 19.2181 8.08094 19.7726 8.76491 19.7726H16.1654C16.8494 19.7726 17.4039 19.2181 17.4039 18.5341C17.4039 17.8502 16.8494 17.2957 16.1654 17.2957H8.76491Z" fill="#1D4ED8"/>
<path d="M21.0459 17.2957C20.362 17.2957 19.8075 17.8502 19.8075 18.5341C19.8075 19.2181 20.362 19.7726 21.0459 19.7726H23.5647C24.2487 19.7726 24.8031 19.2181 24.8031 18.5341C24.8031 17.8502 24.2487 17.2957 23.5647 17.2957H21.0459Z" fill="#1D4ED8"/>
<path d="M6.3441 19.7555C5.66013 19.7555 5.10567 20.31 5.10567 20.994V23.5127C5.10567 24.1966 5.66014 24.7511 6.3441 24.7511C7.02806 24.7511 7.58253 24.1966 7.58253 23.5126V20.994C7.58253 20.31 7.02806 19.7555 6.3441 19.7555Z" fill="#1D4ED8"/>
<path d="M18.586 19.7555C17.9021 19.7555 17.3476 20.31 17.3476 20.994V23.5127C17.3476 24.1967 17.9021 24.7511 18.586 24.7511C19.27 24.7511 19.8245 24.1967 19.8245 23.5127V20.994C19.8245 20.31 19.27 19.7555 18.586 19.7555Z" fill="#1D4ED8"/>
<path d="M136.213 9.02148C138.942 9.02148 141.873 11.0057 141.873 14.6811C141.873 15.2899 141.377 15.7859 140.745 15.7859H132.966C133.44 17.1388 134.702 18.1084 136.213 18.1084C136.732 18.1084 137.656 18.0633 138.739 17.3643C139.257 17.0261 139.956 17.3418 140.227 17.8829C140.497 18.4466 140.204 19.0329 139.686 19.3711C138.197 20.3632 137.047 20.3407 136.213 20.3407C133.079 20.3407 130.554 17.7927 130.554 14.6811C130.554 11.5469 133.079 9.02148 136.213 9.02148ZM136.213 11.2538C134.702 11.2538 133.44 12.2233 132.966 13.5537H139.483C139.009 11.9753 137.566 11.2538 136.213 11.2538Z" fill="#1D4ED8"/>
<path d="M129.221 13.576C129.221 13.6211 129.221 13.6437 129.198 13.6662C129.221 13.7113 129.221 13.7339 129.221 13.779V19.2582C129.221 19.8895 128.702 20.3856 128.093 20.3856C127.485 20.3856 126.989 19.8895 126.989 19.2582V13.779C126.989 13.7339 126.989 13.7113 126.989 13.6662C126.989 13.6437 126.989 13.6211 126.989 13.576C126.989 12.3133 125.951 11.2987 124.689 11.2987C123.426 11.2987 122.389 12.3133 122.389 13.576V19.2582C122.389 19.8895 121.893 20.3856 121.284 20.3856C120.675 20.3856 120.156 19.8895 120.156 19.2582V13.576C120.156 12.3133 119.142 11.2987 117.879 11.2987C116.616 11.2987 115.579 12.3133 115.579 13.576V19.2582C115.579 19.8895 115.083 20.3856 114.474 20.3856C113.843 20.3856 113.347 19.8895 113.347 19.2582V13.576C113.347 11.0957 115.376 9.06641 117.879 9.06641C119.232 9.06641 120.45 9.65266 121.284 10.6222C122.118 9.65266 123.336 9.06641 124.689 9.06641C127.192 9.06641 129.221 11.0957 129.221 13.576Z" fill="#1D4ED8"/>
<path d="M106.497 9.06641C109.676 9.06641 112.044 11.5918 112.044 14.7711V19.1905C112.044 19.8444 111.57 20.318 110.916 20.318C110.466 20.318 109.834 19.8444 109.834 19.1905C108.865 20.0023 107.782 20.318 106.497 20.318C103.318 20.318 100.792 17.9504 100.792 14.7711C100.792 11.5918 103.318 9.06641 106.497 9.06641ZM106.497 18.1082C108.391 18.1082 109.834 16.6651 109.834 14.7711C109.834 12.877 108.391 11.2761 106.497 11.2761C104.603 11.2761 103.002 12.877 103.002 14.7711C103.002 16.6651 104.603 18.1082 106.497 18.1082Z" fill="#1D4ED8"/>
<path d="M99.8024 9.04443C100.434 9.04443 100.93 9.54049 100.93 10.1493C100.93 10.7581 100.434 11.2767 99.8024 11.2767C97.9083 11.2767 96.3751 12.81 96.3751 14.704V19.2362C96.3751 19.845 95.879 20.3636 95.2702 20.3636C94.6389 20.3636 94.1428 19.845 94.1428 19.2362V14.704C94.1428 11.5698 96.6907 9.04443 99.8024 9.04443Z" fill="#1D4ED8"/>
<path d="M93.28 4.57959C93.8888 4.57959 94.4074 5.07565 94.4074 5.707C94.4074 6.33835 93.8888 6.83441 93.28 6.83441H86.5607V11.3666H91.6791C92.2879 11.3666 92.8065 11.8627 92.8065 12.494C92.8065 13.1254 92.2879 13.6214 91.6791 13.6214H86.5607V19.1908C86.5607 19.8222 86.0421 20.3182 85.4333 20.3182C84.8019 20.3182 84.3058 19.8222 84.3058 19.1908V5.707C84.3058 5.07565 84.8019 4.57959 85.4333 4.57959H85.4558C85.4784 4.57959 85.4784 4.57959 85.5009 4.57959H93.28Z" fill="#1D4ED8"/>
<path d="M77.2544 9.02148C80.3661 9.02148 82.914 11.5469 82.914 14.6811V19.2133C82.914 19.8446 82.418 20.3407 81.7866 20.3407C81.1778 20.3407 80.6818 19.8446 80.6818 19.2133V14.6811C80.6818 12.787 79.1485 11.2538 77.2544 11.2538C75.3604 11.2538 73.8271 12.787 73.8271 14.6811V19.2133C73.8271 19.8446 73.3311 20.3407 72.6997 20.3407C72.0909 20.3407 71.5948 19.8446 71.5948 19.2133V14.6811C71.5948 11.5469 74.1428 9.02148 77.2544 9.02148Z" fill="#1D4ED8"/>
<path d="M64.5825 9.02148C67.3108 9.02148 70.2421 11.0057 70.2421 14.6811C70.2421 15.2899 69.746 15.7859 69.1147 15.7859H61.3356C61.8091 17.1388 63.0718 18.1084 64.5825 18.1084C65.1011 18.1084 66.0256 18.0633 67.1079 17.3643C67.6265 17.0261 68.3255 17.3418 68.5961 17.8829C68.8667 18.4466 68.5735 19.0329 68.0549 19.3711C66.5667 20.3632 65.4168 20.3407 64.5825 20.3407C61.4483 20.3407 58.9229 17.7927 58.9229 14.6811C58.9229 11.5469 61.4483 9.02148 64.5825 9.02148ZM64.5825 11.2538C63.0718 11.2538 61.8091 12.2233 61.3356 13.5537H67.852C67.3785 11.9753 65.9354 11.2538 64.5825 11.2538Z" fill="#1D4ED8"/>
<path d="M51.9533 20.431C50.6681 20.431 49.473 20.0026 48.526 19.2811V24.8955C48.526 25.5044 48.0299 26.0004 47.4211 26.0004C46.7898 26.0004 46.2937 25.5044 46.2937 24.8955V14.794V14.7714C46.2937 11.6598 48.8416 9.11182 51.9533 9.11182C55.0875 9.11182 57.6129 11.6598 57.6129 14.7714C57.6129 17.9056 55.0875 20.431 51.9533 20.431ZM51.9533 11.3441C50.0592 11.3441 48.526 12.8774 48.526 14.7714V14.794C48.526 16.6655 50.0592 18.1987 51.9533 18.1987C53.8473 18.1987 55.3806 16.6655 55.3806 14.7714C55.3806 12.8999 53.8473 11.3441 51.9533 11.3441Z" fill="#1D4ED8"/>
<path d="M37.361 20.2826C33.0092 20.2826 29.5593 16.6974 29.5593 12.3456C29.5593 8.10656 33.0092 4.54395 37.361 4.54395C41.7128 4.54395 45.1626 8.10656 45.1626 12.3456C45.1626 16.6974 41.7128 20.2826 37.361 20.2826ZM37.361 6.73112C34.2719 6.73112 31.7465 9.25652 31.7465 12.3456C31.7465 15.5475 34.2719 18.0954 37.361 18.0954C40.4501 18.0954 42.998 15.5475 42.998 12.3456C42.998 9.25652 40.4501 6.73112 37.361 6.73112Z" fill="#1D4ED8"/>
</svg>
